# xmcd
# Copyright (C) 1995-1998 Ti Kan
#
# Track frame offsets:
#       150
#       9798
#       23925
#       41333
#       56425
#       72934
#       94184
#       114554
#       128780
#       141412
#       164306
#       176357
#
# Disc length: 2684 seconds
#
# Revision: 0
# Processed by: cddbd v1.5.2PL0 Copyright (c) Steve Scherf et al.
# Submitted via: CD-Import v1.0
#
DISCID=970a7a0c
DTITLE=Bernhard Schnur - Avril
DYEAR=1900
DGENRE=
TTITLE0=Cité Satellite
TTITLE1=Birds
TTITLE2=The Beauty Of Electricity
TTITLE3=Rouge Et Noire
TTITLE4=Doubt Is Your Enemy
TTITLE5=Enno Vani Sid
TTITLE6=Decision Based On Trial And Error
TTITLE7=Autoput Exit
TTITLE8=Carossa
TTITLE9=Non Disturbare
TTITLE10=Next Step
TTITLE11=Tout Le Monde
EXTD=
EXTT0=
EXTT1=
EXTT2=
EXTT3=
EXTT4=
EXTT5=
EXTT6=
EXTT7=
EXTT8=
EXTT9=
EXTT10=
EXTT11=
PLAYORDER=
